<svg xmlns="http://www.w3.org/2000/svg" xmlns:xlink="http://www.w3.org/1999/xlink" width="170" zoomAndPan="magnify" viewBox="0 0 127.5 32.999998" height="44" preserveAspectRatio="xMidYMid meet" version="1.2"><defs><clipPath id="34e5fb45fe"><path d="M 7 2.605469 L 42.660156 2.605469 L 42.660156 32.933594 L 7 32.933594 Z M 7 2.605469 "/></clipPath></defs><g id="bbbe59eb53"><g style="fill:#27ae60;fill-opacity:1;"><g transform="translate(46.164886, 13.631249)"><path style="stroke:none" d="M 10.609375 0 L 7.75 -4.03125 C 7.425781 -4 7.085938 -3.984375 6.734375 -3.984375 L 3.375 -3.984375 L 3.375 0 L 2.046875 0 L 2.046875 -12.546875 L 6.734375 -12.546875 C 8.335938 -12.546875 9.59375 -12.160156 10.5 -11.390625 C 11.40625 -10.628906 11.859375 -9.582031 11.859375 -8.25 C 11.859375 -7.269531 11.609375 -6.441406 11.109375 -5.765625 C 10.617188 -5.085938 9.914062 -4.597656 9 -4.296875 L 12.0625 0 Z M 6.703125 -5.109375 C 7.941406 -5.109375 8.890625 -5.378906 9.546875 -5.921875 C 10.203125 -6.472656 10.53125 -7.25 10.53125 -8.25 C 10.53125 -9.257812 10.203125 -10.035156 9.546875 -10.578125 C 8.890625 -11.117188 7.941406 -11.390625 6.703125 -11.390625 L 3.375 -11.390625 L 3.375 -5.109375 Z M 6.703125 -5.109375 "/></g></g><g style="fill:#000000;fill-opacity:1;"><g transform="translate(59.133559, 13.631249)"><path style="stroke:none" d="M 9.984375 -4.3125 L 2.09375 -4.3125 C 2.164062 -3.332031 2.539062 -2.539062 3.21875 -1.9375 C 3.90625 -1.34375 4.769531 -1.046875 5.8125 -1.046875 C 6.394531 -1.046875 6.929688 -1.148438 7.421875 -1.359375 C 7.910156 -1.566406 8.332031 -1.875 8.6875 -2.28125 L 9.40625 -1.453125 C 8.988281 -0.953125 8.46875 -0.566406 7.84375 -0.296875 C 7.21875 -0.0351562 6.523438 0.09375 5.765625 0.09375 C 4.796875 0.09375 3.9375 -0.109375 3.1875 -0.515625 C 2.445312 -0.929688 1.867188 -1.503906 1.453125 -2.234375 C 1.035156 -2.960938 0.828125 -3.789062 0.828125 -4.71875 C 0.828125 -5.632812 1.023438 -6.457031 1.421875 -7.1875 C 1.828125 -7.914062 2.378906 -8.484375 3.078125 -8.890625 C 3.773438 -9.296875 4.5625 -9.5 5.4375 -9.5 C 6.300781 -9.5 7.078125 -9.296875 7.765625 -8.890625 C 8.460938 -8.484375 9.007812 -7.914062 9.40625 -7.1875 C 9.800781 -6.46875 10 -5.644531 10 -4.71875 Z M 5.4375 -8.40625 C 4.519531 -8.40625 3.753906 -8.113281 3.140625 -7.53125 C 2.523438 -6.957031 2.175781 -6.203125 2.09375 -5.265625 L 8.78125 -5.265625 C 8.695312 -6.203125 8.347656 -6.957031 7.734375 -7.53125 C 7.117188 -8.113281 6.351562 -8.40625 5.4375 -8.40625 Z M 5.4375 -8.40625 "/></g></g><g style="fill:#000000;fill-opacity:1;"><g transform="translate(69.963057, 13.631249)"><path style="stroke:none" d="M 6.578125 -9.5 C 7.765625 -9.5 8.707031 -9.15625 9.40625 -8.46875 C 10.101562 -7.78125 10.453125 -6.78125 10.453125 -5.46875 L 10.453125 0 L 9.171875 0 L 9.171875 -5.34375 C 9.171875 -6.320312 8.925781 -7.066406 8.4375 -7.578125 C 7.945312 -8.097656 7.25 -8.359375 6.34375 -8.359375 C 5.332031 -8.359375 4.53125 -8.054688 3.9375 -7.453125 C 3.34375 -6.847656 3.046875 -6.015625 3.046875 -4.953125 L 3.046875 0 L 1.78125 0 L 1.78125 -9.421875 L 3 -9.421875 L 3 -7.6875 C 3.34375 -8.257812 3.820312 -8.703125 4.4375 -9.015625 C 5.050781 -9.335938 5.765625 -9.5 6.578125 -9.5 Z M 6.578125 -9.5 "/></g></g><g style="fill:#000000;fill-opacity:1;"><g transform="translate(82.101422, 13.631249)"><path style="stroke:none" d="M 6.734375 -0.578125 C 6.492188 -0.359375 6.195312 -0.191406 5.84375 -0.078125 C 5.5 0.0351562 5.132812 0.09375 4.75 0.09375 C 3.863281 0.09375 3.179688 -0.144531 2.703125 -0.625 C 2.222656 -1.101562 1.984375 -1.78125 1.984375 -2.65625 L 1.984375 -8.359375 L 0.296875 -8.359375 L 0.296875 -9.421875 L 1.984375 -9.421875 L 1.984375 -11.484375 L 3.265625 -11.484375 L 3.265625 -9.421875 L 6.125 -9.421875 L 6.125 -8.359375 L 3.265625 -8.359375 L 3.265625 -2.71875 C 3.265625 -2.15625 3.40625 -1.726562 3.6875 -1.4375 C 3.96875 -1.144531 4.367188 -1 4.890625 -1 C 5.148438 -1 5.398438 -1.039062 5.640625 -1.125 C 5.890625 -1.207031 6.109375 -1.328125 6.296875 -1.484375 Z M 6.734375 -0.578125 "/></g></g><g style="fill:#27ae60;fill-opacity:1;"><g transform="translate(89.389905, 13.631249)"><path style="stroke:none" d="M 7.09375 0.109375 C 5.46875 0.109375 4.203125 -0.351562 3.296875 -1.28125 C 2.390625 -2.21875 1.9375 -3.578125 1.9375 -5.359375 L 1.9375 -12.546875 L 3.265625 -12.546875 L 3.265625 -5.40625 C 3.265625 -3.945312 3.59375 -2.859375 4.25 -2.140625 C 4.90625 -1.429688 5.851562 -1.078125 7.09375 -1.078125 C 8.351562 -1.078125 9.3125 -1.429688 9.96875 -2.140625 C 10.625 -2.859375 10.953125 -3.945312 10.953125 -5.40625 L 10.953125 -12.546875 L 12.234375 -12.546875 L 12.234375 -5.359375 C 12.234375 -3.578125 11.78125 -2.21875 10.875 -1.28125 C 9.976562 -0.351562 8.71875 0.109375 7.09375 0.109375 Z M 7.09375 0.109375 "/></g></g><g style="fill:#000000;fill-opacity:1;"><g transform="translate(103.595914, 13.631249)"><path style="stroke:none" d="M 6.625 -9.5 C 7.507812 -9.5 8.3125 -9.296875 9.03125 -8.890625 C 9.75 -8.492188 10.3125 -7.929688 10.71875 -7.203125 C 11.125 -6.472656 11.328125 -5.644531 11.328125 -4.71875 C 11.328125 -3.769531 11.125 -2.929688 10.71875 -2.203125 C 10.3125 -1.472656 9.75 -0.90625 9.03125 -0.5 C 8.320312 -0.101562 7.519531 0.09375 6.625 0.09375 C 5.863281 0.09375 5.175781 -0.0625 4.5625 -0.375 C 3.945312 -0.695312 3.441406 -1.164062 3.046875 -1.78125 L 3.046875 3.484375 L 1.78125 3.484375 L 1.78125 -9.421875 L 3 -9.421875 L 3 -7.5625 C 3.375 -8.1875 3.875 -8.664062 4.5 -9 C 5.132812 -9.332031 5.84375 -9.5 6.625 -9.5 Z M 6.546875 -1.046875 C 7.203125 -1.046875 7.796875 -1.195312 8.328125 -1.5 C 8.867188 -1.800781 9.289062 -2.234375 9.59375 -2.796875 C 9.894531 -3.359375 10.046875 -4 10.046875 -4.71875 C 10.046875 -5.425781 9.894531 -6.054688 9.59375 -6.609375 C 9.289062 -7.171875 8.867188 -7.609375 8.328125 -7.921875 C 7.796875 -8.234375 7.203125 -8.390625 6.546875 -8.390625 C 5.867188 -8.390625 5.265625 -8.234375 4.734375 -7.921875 C 4.203125 -7.609375 3.785156 -7.171875 3.484375 -6.609375 C 3.179688 -6.054688 3.03125 -5.425781 3.03125 -4.71875 C 3.03125 -4 3.179688 -3.359375 3.484375 -2.796875 C 3.785156 -2.234375 4.203125 -1.800781 4.734375 -1.5 C 5.265625 -1.195312 5.867188 -1.046875 6.546875 -1.046875 Z M 6.546875 -1.046875 "/></g></g><g style="fill:#27ae60;fill-opacity:1;"><g transform="translate(53.705627, 27.825585)"><path style="stroke:none" d="M 5.5 0.109375 C 4.570312 0.109375 3.679688 -0.0351562 2.828125 -0.328125 C 1.972656 -0.628906 1.3125 -1.023438 0.84375 -1.515625 L 1.359375 -2.546875 C 1.816406 -2.085938 2.421875 -1.71875 3.171875 -1.4375 C 3.921875 -1.15625 4.695312 -1.015625 5.5 -1.015625 C 6.625 -1.015625 7.46875 -1.222656 8.03125 -1.640625 C 8.59375 -2.054688 8.875 -2.59375 8.875 -3.25 C 8.875 -3.75 8.71875 -4.144531 8.40625 -4.4375 C 8.101562 -4.738281 7.726562 -4.96875 7.28125 -5.125 C 6.84375 -5.289062 6.234375 -5.46875 5.453125 -5.65625 C 4.503906 -5.894531 3.75 -6.125 3.1875 -6.34375 C 2.625 -6.570312 2.140625 -6.910156 1.734375 -7.359375 C 1.335938 -7.816406 1.140625 -8.4375 1.140625 -9.21875 C 1.140625 -9.84375 1.304688 -10.414062 1.640625 -10.9375 C 1.984375 -11.457031 2.5 -11.875 3.1875 -12.1875 C 3.882812 -12.5 4.742188 -12.65625 5.765625 -12.65625 C 6.484375 -12.65625 7.1875 -12.554688 7.875 -12.359375 C 8.5625 -12.160156 9.15625 -11.890625 9.65625 -11.546875 L 9.21875 -10.484375 C 8.6875 -10.828125 8.117188 -11.085938 7.515625 -11.265625 C 6.921875 -11.441406 6.335938 -11.53125 5.765625 -11.53125 C 4.671875 -11.53125 3.84375 -11.316406 3.28125 -10.890625 C 2.726562 -10.460938 2.453125 -9.914062 2.453125 -9.25 C 2.453125 -8.75 2.601562 -8.34375 2.90625 -8.03125 C 3.21875 -7.726562 3.601562 -7.492188 4.0625 -7.328125 C 4.519531 -7.171875 5.140625 -7 5.921875 -6.8125 C 6.835938 -6.582031 7.578125 -6.359375 8.140625 -6.140625 C 8.710938 -5.921875 9.191406 -5.585938 9.578125 -5.140625 C 9.972656 -4.691406 10.171875 -4.082031 10.171875 -3.3125 C 10.171875 -2.675781 10 -2.097656 9.65625 -1.578125 C 9.320312 -1.066406 8.800781 -0.65625 8.09375 -0.34375 C 7.394531 -0.0390625 6.53125 0.109375 5.5 0.109375 Z M 5.5 0.109375 "/></g></g><g style="fill:#000000;fill-opacity:1;"><g transform="translate(64.736586, 27.825585)"><path style="stroke:none" d="M 6.625 -9.5 C 7.507812 -9.5 8.3125 -9.296875 9.03125 -8.890625 C 9.75 -8.492188 10.3125 -7.929688 10.71875 -7.203125 C 11.125 -6.472656 11.328125 -5.644531 11.328125 -4.71875 C 11.328125 -3.769531 11.125 -2.929688 10.71875 -2.203125 C 10.3125 -1.472656 9.75 -0.90625 9.03125 -0.5 C 8.320312 -0.101562 7.519531 0.09375 6.625 0.09375 C 5.863281 0.09375 5.175781 -0.0625 4.5625 -0.375 C 3.945312 -0.695312 3.441406 -1.164062 3.046875 -1.78125 L 3.046875 3.484375 L 1.78125 3.484375 L 1.78125 -9.421875 L 3 -9.421875 L 3 -7.5625 C 3.375 -8.1875 3.875 -8.664062 4.5 -9 C 5.132812 -9.332031 5.84375 -9.5 6.625 -9.5 Z M 6.546875 -1.046875 C 7.203125 -1.046875 7.796875 -1.195312 8.328125 -1.5 C 8.867188 -1.800781 9.289062 -2.234375 9.59375 -2.796875 C 9.894531 -3.359375 10.046875 -4 10.046875 -4.71875 C 10.046875 -5.425781 9.894531 -6.054688 9.59375 -6.609375 C 9.289062 -7.171875 8.867188 -7.609375 8.328125 -7.921875 C 7.796875 -8.234375 7.203125 -8.390625 6.546875 -8.390625 C 5.867188 -8.390625 5.265625 -8.234375 4.734375 -7.921875 C 4.203125 -7.609375 3.785156 -7.171875 3.484375 -6.609375 C 3.179688 -6.054688 3.03125 -5.425781 3.03125 -4.71875 C 3.03125 -4 3.179688 -3.359375 3.484375 -2.796875 C 3.785156 -2.234375 4.203125 -1.800781 4.734375 -1.5 C 5.265625 -1.195312 5.867188 -1.046875 6.546875 -1.046875 Z M 6.546875 -1.046875 "/></g></g><g style="fill:#000000;fill-opacity:1;"><g transform="translate(76.839088, 27.825585)"><path style="stroke:none" d="M 5.078125 -9.5 C 6.304688 -9.5 7.25 -9.191406 7.90625 -8.578125 C 8.5625 -7.960938 8.890625 -7.050781 8.890625 -5.84375 L 8.890625 0 L 7.671875 0 L 7.671875 -1.46875 C 7.378906 -0.976562 6.957031 -0.59375 6.40625 -0.3125 C 5.851562 -0.0390625 5.191406 0.09375 4.421875 0.09375 C 3.367188 0.09375 2.53125 -0.15625 1.90625 -0.65625 C 1.289062 -1.164062 0.984375 -1.832031 0.984375 -2.65625 C 0.984375 -3.457031 1.269531 -4.101562 1.84375 -4.59375 C 2.425781 -5.082031 3.351562 -5.328125 4.625 -5.328125 L 7.609375 -5.328125 L 7.609375 -5.890625 C 7.609375 -6.703125 7.378906 -7.320312 6.921875 -7.75 C 6.472656 -8.175781 5.816406 -8.390625 4.953125 -8.390625 C 4.347656 -8.390625 3.769531 -8.289062 3.21875 -8.09375 C 2.675781 -7.894531 2.207031 -7.625 1.8125 -7.28125 L 1.234375 -8.21875 C 1.710938 -8.625 2.285156 -8.9375 2.953125 -9.15625 C 3.617188 -9.382812 4.328125 -9.5 5.078125 -9.5 Z M 4.625 -0.90625 C 5.34375 -0.90625 5.957031 -1.070312 6.46875 -1.40625 C 6.976562 -1.738281 7.359375 -2.210938 7.609375 -2.828125 L 7.609375 -4.375 L 4.65625 -4.375 C 3.039062 -4.375 2.234375 -3.8125 2.234375 -2.6875 C 2.234375 -2.132812 2.441406 -1.695312 2.859375 -1.375 C 3.285156 -1.0625 3.875 -0.90625 4.625 -0.90625 Z M 4.625 -0.90625 "/></g></g><g style="fill:#000000;fill-opacity:1;"><g transform="translate(87.453434, 27.825585)"><path style="stroke:none" d="M 5.6875 0.09375 C 4.75 0.09375 3.910156 -0.109375 3.171875 -0.515625 C 2.441406 -0.921875 1.867188 -1.488281 1.453125 -2.21875 C 1.035156 -2.957031 0.828125 -3.789062 0.828125 -4.71875 C 0.828125 -5.632812 1.035156 -6.457031 1.453125 -7.1875 C 1.867188 -7.914062 2.441406 -8.484375 3.171875 -8.890625 C 3.910156 -9.296875 4.75 -9.5 5.6875 -9.5 C 6.5 -9.5 7.222656 -9.335938 7.859375 -9.015625 C 8.492188 -8.703125 9 -8.242188 9.375 -7.640625 L 8.421875 -6.984375 C 8.109375 -7.453125 7.710938 -7.800781 7.234375 -8.03125 C 6.765625 -8.269531 6.25 -8.390625 5.6875 -8.390625 C 5 -8.390625 4.382812 -8.234375 3.84375 -7.921875 C 3.300781 -7.617188 2.875 -7.1875 2.5625 -6.625 C 2.257812 -6.0625 2.109375 -5.425781 2.109375 -4.71875 C 2.109375 -3.988281 2.257812 -3.34375 2.5625 -2.78125 C 2.875 -2.226562 3.300781 -1.800781 3.84375 -1.5 C 4.382812 -1.195312 5 -1.046875 5.6875 -1.046875 C 6.25 -1.046875 6.765625 -1.15625 7.234375 -1.375 C 7.710938 -1.601562 8.109375 -1.953125 8.421875 -2.421875 L 9.375 -1.78125 C 9 -1.164062 8.488281 -0.695312 7.84375 -0.375 C 7.195312 -0.0625 6.476562 0.09375 5.6875 0.09375 Z M 5.6875 0.09375 "/></g></g><g style="fill:#000000;fill-opacity:1;"><g transform="translate(97.386451, 27.825585)"><path style="stroke:none" d="M 9.984375 -4.3125 L 2.09375 -4.3125 C 2.164062 -3.332031 2.539062 -2.539062 3.21875 -1.9375 C 3.90625 -1.34375 4.769531 -1.046875 5.8125 -1.046875 C 6.394531 -1.046875 6.929688 -1.148438 7.421875 -1.359375 C 7.910156 -1.566406 8.332031 -1.875 8.6875 -2.28125 L 9.40625 -1.453125 C 8.988281 -0.953125 8.46875 -0.566406 7.84375 -0.296875 C 7.21875 -0.0351562 6.523438 0.09375 5.765625 0.09375 C 4.796875 0.09375 3.9375 -0.109375 3.1875 -0.515625 C 2.445312 -0.929688 1.867188 -1.503906 1.453125 -2.234375 C 1.035156 -2.960938 0.828125 -3.789062 0.828125 -4.71875 C 0.828125 -5.632812 1.023438 -6.457031 1.421875 -7.1875 C 1.828125 -7.914062 2.378906 -8.484375 3.078125 -8.890625 C 3.773438 -9.296875 4.5625 -9.5 5.4375 -9.5 C 6.300781 -9.5 7.078125 -9.296875 7.765625 -8.890625 C 8.460938 -8.484375 9.007812 -7.914062 9.40625 -7.1875 C 9.800781 -6.46875 10 -5.644531 10 -4.71875 Z M 5.4375 -8.40625 C 4.519531 -8.40625 3.753906 -8.113281 3.140625 -7.53125 C 2.523438 -6.957031 2.175781 -6.203125 2.09375 -5.265625 L 8.78125 -5.265625 C 8.695312 -6.203125 8.347656 -6.957031 7.734375 -7.53125 C 7.117188 -8.113281 6.351562 -8.40625 5.4375 -8.40625 Z M 5.4375 -8.40625 "/></g></g><g clip-rule="nonzero" clip-path="url(#34e5fb45fe)"><path style=" stroke:none;fill-rule:evenodd;fill:#27ae60;fill-opacity:1;" d="M 41.957031 20.113281 L 36.65625 14.8125 L 36.65625 6.480469 L 36.914062 6.480469 C 37.195312 6.480469 37.429688 6.25 37.429688 5.96875 L 37.429688 3.132812 C 37.429688 2.847656 37.195312 2.617188 36.914062 2.617188 L 30.984375 2.617188 C 30.699219 2.617188 30.46875 2.847656 30.46875 3.132812 L 30.46875 5.96875 C 30.46875 6.25 30.699219 6.480469 30.984375 6.480469 L 31.242188 6.480469 L 31.242188 9.398438 L 27.011719 5.167969 C 25.757812 3.914062 23.707031 3.914062 22.453125 5.167969 L 7.507812 20.113281 C 6.800781 20.816406 6.855469 22.003906 7.671875 22.632812 C 8.347656 23.152344 9.316406 23.042969 9.917969 22.441406 L 12.09375 20.265625 L 12.738281 28.960938 C 12.691406 29.097656 12.65625 29.238281 12.628906 29.375 C 11.980469 29.273438 11.25 29.332031 10.914062 29.917969 C 10.601562 30.453125 10.855469 31.070312 11.1875 31.527344 C 11.527344 31.992188 12.011719 32.394531 12.503906 32.707031 C 12.480469 32.769531 12.464844 32.839844 12.464844 32.910156 L 12.464844 34.199219 C 12.464844 34.765625 12.925781 35.230469 13.496094 35.230469 L 35.96875 35.230469 C 36.535156 35.230469 37 34.765625 37 34.199219 L 37 32.910156 C 37 32.839844 36.984375 32.769531 36.957031 32.707031 C 37.453125 32.394531 37.9375 31.992188 38.277344 31.527344 C 38.609375 31.070312 38.859375 30.453125 38.550781 29.917969 C 38.210938 29.332031 37.480469 29.273438 36.835938 29.375 C 36.804688 29.238281 36.769531 29.097656 36.726562 28.960938 L 37.367188 20.265625 L 39.542969 22.441406 C 40.144531 23.042969 41.113281 23.152344 41.789062 22.632812 C 42.605469 22.003906 42.660156 20.816406 41.957031 20.113281 Z M 34.207031 3.132812 L 36.914062 3.132812 L 36.914062 5.96875 L 34.207031 5.96875 Z M 31.757812 7.902344 L 31.757812 6.484375 L 36.140625 6.484375 L 36.140625 7.902344 Z M 36.140625 8.414062 L 36.140625 14.296875 L 31.757812 9.914062 L 31.757812 8.414062 Z M 30.984375 5.96875 L 30.984375 3.132812 L 33.691406 3.132812 L 33.691406 5.96875 Z M 11.359375 30.175781 C 11.554688 29.835938 12.117188 29.765625 12.808594 29.9375 C 12.890625 29.957031 12.976562 29.980469 13.066406 30.007812 C 13.082031 29.652344 13.148438 29.316406 13.257812 29.015625 C 13.546875 28.21875 14.121094 27.671875 14.785156 27.671875 C 15.695312 27.671875 16.441406 28.703125 16.503906 30.007812 C 17.3125 29.753906 17.992188 29.796875 18.210938 30.175781 C 18.515625 30.707031 17.789062 31.699219 16.589844 32.394531 L 12.980469 32.394531 C 11.777344 31.699219 11.050781 30.707031 11.359375 30.175781 Z M 14.363281 34.714844 L 13.496094 34.714844 C 13.210938 34.714844 12.980469 34.480469 12.980469 34.199219 L 12.980469 32.910156 L 16.589844 32.910156 L 16.589844 34.199219 C 16.589844 34.480469 16.355469 34.714844 16.074219 34.714844 Z M 21.378906 34.714844 L 21.378906 27.269531 C 21.378906 26.988281 21.609375 26.753906 21.894531 26.753906 L 24.472656 26.753906 L 24.472656 34.714844 Z M 24.988281 34.714844 L 24.988281 26.753906 L 27.566406 26.753906 C 27.851562 26.753906 28.082031 26.988281 28.082031 27.269531 L 28.082031 34.714844 Z M 36.484375 34.199219 C 36.484375 34.480469 36.25 34.714844 35.96875 34.714844 L 33.390625 34.714844 C 33.105469 34.714844 32.875 34.480469 32.875 34.199219 L 32.875 32.910156 L 36.484375 32.910156 Z M 38.105469 30.175781 C 38.410156 30.707031 37.683594 31.699219 36.484375 32.394531 L 32.875 32.394531 C 31.671875 31.699219 30.945312 30.707031 31.253906 30.175781 C 31.472656 29.796875 32.152344 29.753906 32.957031 30.007812 C 33.019531 28.703125 33.765625 27.671875 34.679688 27.671875 C 35.339844 27.671875 35.917969 28.21875 36.203125 29.015625 C 36.3125 29.316406 36.382812 29.652344 36.398438 30.007812 C 36.484375 29.980469 36.570312 29.957031 36.652344 29.9375 C 37.347656 29.765625 37.910156 29.835938 38.105469 30.175781 Z M 36.277344 28.050781 C 35.980469 27.636719 35.578125 27.316406 35.058594 27.199219 C 34.933594 27.171875 34.808594 27.15625 34.679688 27.15625 C 34.550781 27.15625 34.421875 27.171875 34.296875 27.199219 C 33.296875 27.425781 32.722656 28.40625 32.523438 29.375 C 31.875 29.273438 31.144531 29.332031 30.804688 29.917969 C 30.496094 30.453125 30.75 31.070312 31.082031 31.527344 C 31.421875 31.992188 31.902344 32.394531 32.398438 32.707031 C 32.371094 32.769531 32.359375 32.839844 32.359375 32.910156 L 32.359375 34.199219 C 32.359375 34.386719 32.410156 34.5625 32.496094 34.714844 L 28.597656 34.714844 L 28.597656 27.269531 C 28.597656 26.703125 28.136719 26.238281 27.566406 26.238281 L 21.894531 26.238281 C 21.328125 26.238281 20.863281 26.703125 20.863281 27.269531 L 20.863281 34.714844 L 16.964844 34.714844 C 17.054688 34.5625 17.105469 34.386719 17.105469 34.199219 L 17.105469 32.910156 C 17.105469 32.839844 17.089844 32.769531 17.0625 32.707031 C 17.558594 32.394531 18.042969 31.992188 18.382812 31.527344 C 18.714844 31.070312 18.964844 30.453125 18.65625 29.917969 C 18.316406 29.332031 17.585938 29.273438 16.941406 29.375 C 16.738281 28.40625 16.164062 27.425781 15.167969 27.199219 C 15.039062 27.171875 14.914062 27.15625 14.785156 27.15625 C 14.65625 27.15625 14.527344 27.171875 14.402344 27.199219 C 13.886719 27.316406 13.484375 27.636719 13.1875 28.050781 L 12.574219 19.785156 L 24.535156 7.820312 C 24.644531 7.714844 24.820312 7.714844 24.925781 7.820312 L 36.886719 19.785156 Z M 41.59375 22.121094 C 41.140625 22.570312 40.402344 22.570312 39.953125 22.117188 L 25.046875 7.214844 C 24.871094 7.039062 24.589844 7.039062 24.414062 7.214844 L 9.511719 22.117188 C 9.285156 22.34375 8.988281 22.457031 8.691406 22.457031 C 8.390625 22.457031 8.09375 22.34375 7.871094 22.121094 C 7.417969 21.667969 7.417969 20.929688 7.871094 20.476562 L 22.910156 5.441406 C 23.910156 4.4375 25.550781 4.4375 26.554688 5.441406 L 41.59375 20.476562 C 41.816406 20.703125 41.929688 21.003906 41.929688 21.300781 C 41.929688 21.597656 41.816406 21.894531 41.59375 22.121094 Z M 41.59375 22.121094 "/></g><path style=" stroke:none;fill-rule:evenodd;fill:#27ae60;fill-opacity:1;" d="M 26.4375 23.144531 C 26.4375 23.855469 27.019531 24.433594 27.726562 24.433594 L 30.882812 24.433594 C 31.59375 24.433594 32.171875 23.855469 32.171875 23.144531 L 32.171875 18.730469 C 32.171875 18.023438 31.59375 17.441406 30.882812 17.441406 L 27.726562 17.441406 C 27.019531 17.441406 26.4375 18.023438 26.4375 18.730469 Z M 29.5625 17.957031 L 30.882812 17.957031 C 31.308594 17.957031 31.65625 18.304688 31.65625 18.730469 L 31.65625 20.679688 L 29.5625 20.679688 Z M 29.5625 21.195312 L 31.65625 21.195312 L 31.65625 23.144531 C 31.65625 23.570312 31.308594 23.917969 30.882812 23.917969 L 29.5625 23.917969 Z M 26.953125 18.730469 C 26.953125 18.304688 27.304688 17.957031 27.726562 17.957031 L 29.046875 17.957031 L 29.046875 20.679688 L 26.953125 20.679688 Z M 26.953125 21.195312 L 29.046875 21.195312 L 29.046875 23.917969 L 27.726562 23.917969 C 27.304688 23.917969 26.953125 23.570312 26.953125 23.144531 Z M 26.953125 21.195312 "/><path style=" stroke:none;fill-rule:evenodd;fill:#27ae60;fill-opacity:1;" d="M 21.734375 17.441406 L 18.578125 17.441406 C 17.871094 17.441406 17.289062 18.023438 17.289062 18.730469 L 17.289062 23.144531 C 17.289062 23.855469 17.871094 24.433594 18.578125 24.433594 L 21.734375 24.433594 C 22.445312 24.433594 23.023438 23.855469 23.023438 23.144531 L 23.023438 18.730469 C 23.023438 18.023438 22.445312 17.441406 21.734375 17.441406 Z M 19.898438 23.917969 L 18.578125 23.917969 C 18.152344 23.917969 17.804688 23.570312 17.804688 23.144531 L 17.804688 21.195312 L 19.898438 21.195312 Z M 19.898438 20.679688 L 17.804688 20.679688 L 17.804688 18.730469 C 17.804688 18.304688 18.152344 17.957031 18.578125 17.957031 L 19.898438 17.957031 Z M 22.507812 23.144531 C 22.507812 23.570312 22.160156 23.917969 21.734375 23.917969 L 20.414062 23.917969 L 20.414062 21.195312 L 22.507812 21.195312 Z M 22.507812 20.679688 L 20.414062 20.679688 L 20.414062 17.957031 L 21.734375 17.957031 C 22.160156 17.957031 22.507812 18.304688 22.507812 18.730469 Z M 22.507812 20.679688 "/><path style=" stroke:none;fill-rule:evenodd;fill:#27ae60;fill-opacity:1;" d="M 22.796875 12.351562 C 22.796875 13.417969 23.664062 14.285156 24.730469 14.285156 C 25.800781 14.285156 26.664062 13.417969 26.664062 12.351562 C 26.664062 11.28125 25.800781 10.417969 24.730469 10.417969 C 23.664062 10.417969 22.796875 11.28125 22.796875 12.351562 Z M 26.148438 12.351562 C 26.148438 13.132812 25.515625 13.769531 24.730469 13.769531 C 23.949219 13.769531 23.3125 13.132812 23.3125 12.351562 C 23.3125 11.566406 23.949219 10.933594 24.730469 10.933594 C 25.515625 10.933594 26.148438 11.566406 26.148438 12.351562 Z M 26.148438 12.351562 "/><path style=" stroke:none;fill-rule:evenodd;fill:#27ae60;fill-opacity:1;" d="M 25.972656 29.6875 C 25.714844 29.6875 25.507812 29.898438 25.507812 30.15625 C 25.507812 30.414062 25.714844 30.621094 25.972656 30.621094 C 26.230469 30.621094 26.441406 30.414062 26.441406 30.15625 C 26.441406 29.898438 26.230469 29.6875 25.972656 29.6875 Z M 25.972656 29.6875 "/><path style=" stroke:none;fill-rule:evenodd;fill:#27ae60;fill-opacity:1;" d="M 23.488281 29.6875 C 23.230469 29.6875 23.023438 29.898438 23.023438 30.15625 C 23.023438 30.414062 23.230469 30.621094 23.488281 30.621094 C 23.746094 30.621094 23.957031 30.414062 23.957031 30.15625 C 23.957031 29.898438 23.746094 29.6875 23.488281 29.6875 Z M 23.488281 29.6875 "/></g></svg>