<svg xmlns="http://www.w3.org/2000/svg" xmlns:xlink="http://www.w3.org/1999/xlink" width="170" zoomAndPan="magnify" viewBox="0 0 127.5 32.999998" height="44" preserveAspectRatio="xMidYMid meet" version="1.2"><defs><clipPath id="71bca76998"><path d="M 62 19 L 72 19 L 72 32.933594 L 62 32.933594 Z M 62 19 "/></clipPath><clipPath id="3c3899b997"><path d="M 12.859375 0.519531 L 43.492188 0.519531 L 43.492188 32.933594 L 12.859375 32.933594 Z M 12.859375 0.519531 "/></clipPath></defs><g id="80ee3e7ec7"><g style="fill:#27ae60;fill-opacity:1;"><g transform="translate(48.238528, 15.043136)"><path style="stroke:none" d="M 7.359375 0 L 4.609375 -4.71875 L 2.78125 -4.71875 L 2.78125 0 L 1.28125 0 L 1.28125 -11.546875 L 5 -11.546875 C 5.875 -11.546875 6.609375 -11.394531 7.203125 -11.09375 C 7.804688 -10.800781 8.257812 -10.398438 8.5625 -9.890625 C 8.863281 -9.378906 9.015625 -8.800781 9.015625 -8.15625 C 9.015625 -7.351562 8.785156 -6.648438 8.328125 -6.046875 C 7.867188 -5.441406 7.179688 -5.039062 6.265625 -4.84375 L 9.15625 0 Z M 2.78125 -5.921875 L 5 -5.921875 C 5.820312 -5.921875 6.4375 -6.125 6.84375 -6.53125 C 7.25 -6.9375 7.453125 -7.476562 7.453125 -8.15625 C 7.453125 -8.832031 7.25 -9.359375 6.84375 -9.734375 C 6.445312 -10.109375 5.832031 -10.296875 5 -10.296875 L 2.78125 -10.296875 Z M 2.78125 -5.921875 "/></g></g><g style="fill:#000000;fill-opacity:1;"><g transform="translate(58.312304, 15.043136)"><path style="stroke:none" d="M 9.5625 -4.890625 C 9.5625 -4.597656 9.539062 -4.289062 9.5 -3.96875 L 2.25 -3.96875 C 2.300781 -3.082031 2.609375 -2.382812 3.171875 -1.875 C 3.734375 -1.375 4.410156 -1.125 5.203125 -1.125 C 5.847656 -1.125 6.390625 -1.273438 6.828125 -1.578125 C 7.265625 -1.878906 7.570312 -2.285156 7.75 -2.796875 L 9.375 -2.796875 C 9.132812 -1.921875 8.648438 -1.207031 7.921875 -0.65625 C 7.191406 -0.113281 6.285156 0.15625 5.203125 0.15625 C 4.335938 0.15625 3.566406 -0.0351562 2.890625 -0.421875 C 2.210938 -0.816406 1.679688 -1.367188 1.296875 -2.078125 C 0.910156 -2.785156 0.71875 -3.609375 0.71875 -4.546875 C 0.71875 -5.492188 0.90625 -6.316406 1.28125 -7.015625 C 1.65625 -7.722656 2.179688 -8.265625 2.859375 -8.640625 C 3.535156 -9.023438 4.316406 -9.21875 5.203125 -9.21875 C 6.066406 -9.21875 6.828125 -9.03125 7.484375 -8.65625 C 8.148438 -8.28125 8.660156 -7.765625 9.015625 -7.109375 C 9.378906 -6.453125 9.5625 -5.710938 9.5625 -4.890625 Z M 8 -5.203125 C 8 -5.773438 7.867188 -6.265625 7.609375 -6.671875 C 7.359375 -7.085938 7.015625 -7.40625 6.578125 -7.625 C 6.140625 -7.84375 5.660156 -7.953125 5.140625 -7.953125 C 4.367188 -7.953125 3.71875 -7.707031 3.1875 -7.21875 C 2.65625 -6.738281 2.347656 -6.066406 2.265625 -5.203125 Z M 8 -5.203125 "/></g></g><g style="fill:#000000;fill-opacity:1;"><g transform="translate(68.574705, 15.043136)"><path style="stroke:none" d="M 5.703125 -9.234375 C 6.804688 -9.234375 7.695312 -8.898438 8.375 -8.234375 C 9.0625 -7.566406 9.40625 -6.601562 9.40625 -5.34375 L 9.40625 0 L 7.921875 0 L 7.921875 -5.140625 C 7.921875 -6.046875 7.691406 -6.738281 7.234375 -7.21875 C 6.785156 -7.695312 6.164062 -7.9375 5.375 -7.9375 C 4.582031 -7.9375 3.953125 -7.6875 3.484375 -7.1875 C 3.015625 -6.6875 2.78125 -5.960938 2.78125 -5.015625 L 2.78125 0 L 1.28125 0 L 1.28125 -9.078125 L 2.78125 -9.078125 L 2.78125 -7.78125 C 3.082031 -8.25 3.488281 -8.609375 4 -8.859375 C 4.507812 -9.109375 5.078125 -9.234375 5.703125 -9.234375 Z M 5.703125 -9.234375 "/></g></g><g style="fill:#000000;fill-opacity:1;"><g transform="translate(79.168156, 15.043136)"><path style="stroke:none" d="M 3.109375 -7.828125 L 3.109375 -2.484375 C 3.109375 -2.046875 3.203125 -1.734375 3.390625 -1.546875 C 3.578125 -1.367188 3.90625 -1.28125 4.375 -1.28125 L 5.484375 -1.28125 L 5.484375 0 L 4.125 0 C 3.28125 0 2.648438 -0.191406 2.234375 -0.578125 C 1.816406 -0.960938 1.609375 -1.597656 1.609375 -2.484375 L 1.609375 -7.828125 L 0.4375 -7.828125 L 0.4375 -9.078125 L 1.609375 -9.078125 L 1.609375 -11.359375 L 3.109375 -11.359375 L 3.109375 -9.078125 L 5.484375 -9.078125 L 5.484375 -7.828125 Z M 3.109375 -7.828125 "/></g></g><g style="fill:#27ae60;fill-opacity:1;"><g transform="translate(85.195161, 15.043136)"><path style="stroke:none" d="M 2.75 -11.546875 L 2.75 -4.234375 C 2.75 -3.210938 3 -2.453125 3.5 -1.953125 C 4 -1.453125 4.695312 -1.203125 5.59375 -1.203125 C 6.476562 -1.203125 7.171875 -1.453125 7.671875 -1.953125 C 8.179688 -2.453125 8.4375 -3.210938 8.4375 -4.234375 L 8.4375 -11.546875 L 9.9375 -11.546875 L 9.9375 -4.25 C 9.9375 -3.289062 9.742188 -2.484375 9.359375 -1.828125 C 8.972656 -1.171875 8.453125 -0.679688 7.796875 -0.359375 C 7.140625 -0.046875 6.398438 0.109375 5.578125 0.109375 C 4.765625 0.109375 4.03125 -0.046875 3.375 -0.359375 C 2.71875 -0.679688 2.195312 -1.171875 1.8125 -1.828125 C 1.425781 -2.484375 1.234375 -3.289062 1.234375 -4.25 L 1.234375 -11.546875 Z M 2.75 -11.546875 "/></g></g><g style="fill:#000000;fill-opacity:1;"><g transform="translate(96.377869, 15.043136)"><path style="stroke:none" d="M 2.78125 -7.40625 C 3.082031 -7.925781 3.523438 -8.359375 4.109375 -8.703125 C 4.703125 -9.046875 5.390625 -9.21875 6.171875 -9.21875 C 6.984375 -9.21875 7.71875 -9.023438 8.375 -8.640625 C 9.03125 -8.253906 9.546875 -7.710938 9.921875 -7.015625 C 10.296875 -6.316406 10.484375 -5.503906 10.484375 -4.578125 C 10.484375 -3.660156 10.296875 -2.84375 9.921875 -2.125 C 9.546875 -1.40625 9.03125 -0.84375 8.375 -0.4375 C 7.71875 -0.0390625 6.984375 0.15625 6.171875 0.15625 C 5.398438 0.15625 4.71875 -0.015625 4.125 -0.359375 C 3.539062 -0.710938 3.09375 -1.148438 2.78125 -1.671875 L 2.78125 4.3125 L 1.28125 4.3125 L 1.28125 -9.078125 L 2.78125 -9.078125 Z M 8.9375 -4.578125 C 8.9375 -5.253906 8.796875 -5.847656 8.515625 -6.359375 C 8.242188 -6.867188 7.875 -7.253906 7.40625 -7.515625 C 6.9375 -7.785156 6.421875 -7.921875 5.859375 -7.921875 C 5.304688 -7.921875 4.796875 -7.785156 4.328125 -7.515625 C 3.859375 -7.242188 3.484375 -6.847656 3.203125 -6.328125 C 2.921875 -5.816406 2.78125 -5.222656 2.78125 -4.546875 C 2.78125 -3.867188 2.921875 -3.269531 3.203125 -2.75 C 3.484375 -2.238281 3.859375 -1.847656 4.328125 -1.578125 C 4.796875 -1.304688 5.304688 -1.171875 5.859375 -1.171875 C 6.421875 -1.171875 6.9375 -1.304688 7.40625 -1.578125 C 7.875 -1.847656 8.242188 -2.238281 8.515625 -2.75 C 8.796875 -3.269531 8.9375 -3.878906 8.9375 -4.578125 Z M 8.9375 -4.578125 "/></g></g><g style="fill:#27ae60;fill-opacity:1;"><g transform="translate(51.693728, 28.490401)"><path style="stroke:none" d="M 4.9375 0.109375 C 4.175781 0.109375 3.492188 -0.0234375 2.890625 -0.296875 C 2.285156 -0.566406 1.8125 -0.941406 1.46875 -1.421875 C 1.125 -1.898438 0.945312 -2.453125 0.9375 -3.078125 L 2.546875 -3.078125 C 2.609375 -2.535156 2.832031 -2.078125 3.21875 -1.703125 C 3.613281 -1.335938 4.1875 -1.15625 4.9375 -1.15625 C 5.65625 -1.15625 6.21875 -1.332031 6.625 -1.6875 C 7.039062 -2.050781 7.25 -2.515625 7.25 -3.078125 C 7.25 -3.523438 7.128906 -3.882812 6.890625 -4.15625 C 6.648438 -4.4375 6.347656 -4.644531 5.984375 -4.78125 C 5.617188 -4.925781 5.125 -5.082031 4.5 -5.25 C 3.738281 -5.445312 3.128906 -5.644531 2.671875 -5.84375 C 2.210938 -6.039062 1.820312 -6.351562 1.5 -6.78125 C 1.175781 -7.207031 1.015625 -7.78125 1.015625 -8.5 C 1.015625 -9.125 1.171875 -9.675781 1.484375 -10.15625 C 1.804688 -10.644531 2.253906 -11.019531 2.828125 -11.28125 C 3.410156 -11.550781 4.082031 -11.6875 4.84375 -11.6875 C 5.914062 -11.6875 6.796875 -11.414062 7.484375 -10.875 C 8.179688 -10.332031 8.570312 -9.617188 8.65625 -8.734375 L 7 -8.734375 C 6.945312 -9.171875 6.71875 -9.554688 6.3125 -9.890625 C 5.90625 -10.234375 5.363281 -10.40625 4.6875 -10.40625 C 4.0625 -10.40625 3.546875 -10.238281 3.140625 -9.90625 C 2.742188 -9.582031 2.546875 -9.128906 2.546875 -8.546875 C 2.546875 -8.128906 2.664062 -7.785156 2.90625 -7.515625 C 3.144531 -7.253906 3.4375 -7.050781 3.78125 -6.90625 C 4.132812 -6.769531 4.625 -6.613281 5.25 -6.4375 C 6.007812 -6.226562 6.617188 -6.019531 7.078125 -5.8125 C 7.546875 -5.613281 7.945312 -5.300781 8.28125 -4.875 C 8.613281 -4.445312 8.78125 -3.867188 8.78125 -3.140625 C 8.78125 -2.578125 8.628906 -2.046875 8.328125 -1.546875 C 8.035156 -1.054688 7.59375 -0.65625 7 -0.34375 C 6.414062 -0.0390625 5.726562 0.109375 4.9375 0.109375 Z M 4.9375 0.109375 "/></g></g><g clip-rule="nonzero" clip-path="url(#71bca76998)"><g style="fill:#000000;fill-opacity:1;"><g transform="translate(61.417315, 28.490401)"><path style="stroke:none" d="M 2.78125 -7.40625 C 3.082031 -7.925781 3.523438 -8.359375 4.109375 -8.703125 C 4.703125 -9.046875 5.390625 -9.21875 6.171875 -9.21875 C 6.984375 -9.21875 7.71875 -9.023438 8.375 -8.640625 C 9.03125 -8.253906 9.546875 -7.710938 9.921875 -7.015625 C 10.296875 -6.316406 10.484375 -5.503906 10.484375 -4.578125 C 10.484375 -3.660156 10.296875 -2.84375 9.921875 -2.125 C 9.546875 -1.40625 9.03125 -0.84375 8.375 -0.4375 C 7.71875 -0.0390625 6.984375 0.15625 6.171875 0.15625 C 5.398438 0.15625 4.71875 -0.015625 4.125 -0.359375 C 3.539062 -0.710938 3.09375 -1.148438 2.78125 -1.671875 L 2.78125 4.3125 L 1.28125 4.3125 L 1.28125 -9.078125 L 2.78125 -9.078125 Z M 8.9375 -4.578125 C 8.9375 -5.253906 8.796875 -5.847656 8.515625 -6.359375 C 8.242188 -6.867188 7.875 -7.253906 7.40625 -7.515625 C 6.9375 -7.785156 6.421875 -7.921875 5.859375 -7.921875 C 5.304688 -7.921875 4.796875 -7.785156 4.328125 -7.515625 C 3.859375 -7.242188 3.484375 -6.847656 3.203125 -6.328125 C 2.921875 -5.816406 2.78125 -5.222656 2.78125 -4.546875 C 2.78125 -3.867188 2.921875 -3.269531 3.203125 -2.75 C 3.484375 -2.238281 3.859375 -1.847656 4.328125 -1.578125 C 4.796875 -1.304688 5.304688 -1.171875 5.859375 -1.171875 C 6.421875 -1.171875 6.9375 -1.304688 7.40625 -1.578125 C 7.875 -1.847656 8.242188 -2.238281 8.515625 -2.75 C 8.796875 -3.269531 8.9375 -3.878906 8.9375 -4.578125 Z M 8.9375 -4.578125 "/></g></g></g><g style="fill:#000000;fill-opacity:1;"><g transform="translate(72.606646, 28.490401)"><path style="stroke:none" d="M 0.71875 -4.578125 C 0.71875 -5.503906 0.90625 -6.316406 1.28125 -7.015625 C 1.65625 -7.710938 2.171875 -8.253906 2.828125 -8.640625 C 3.484375 -9.023438 4.210938 -9.21875 5.015625 -9.21875 C 5.804688 -9.21875 6.492188 -9.046875 7.078125 -8.703125 C 7.671875 -8.367188 8.109375 -7.941406 8.390625 -7.421875 L 8.390625 -9.078125 L 9.921875 -9.078125 L 9.921875 0 L 8.390625 0 L 8.390625 -1.6875 C 8.097656 -1.15625 7.65625 -0.710938 7.0625 -0.359375 C 6.46875 -0.015625 5.78125 0.15625 5 0.15625 C 4.195312 0.15625 3.46875 -0.0390625 2.8125 -0.4375 C 2.164062 -0.84375 1.65625 -1.40625 1.28125 -2.125 C 0.90625 -2.84375 0.71875 -3.660156 0.71875 -4.578125 Z M 8.390625 -4.546875 C 8.390625 -5.234375 8.25 -5.832031 7.96875 -6.34375 C 7.695312 -6.851562 7.328125 -7.242188 6.859375 -7.515625 C 6.390625 -7.785156 5.875 -7.921875 5.3125 -7.921875 C 4.75 -7.921875 4.234375 -7.785156 3.765625 -7.515625 C 3.304688 -7.253906 2.9375 -6.867188 2.65625 -6.359375 C 2.382812 -5.847656 2.25 -5.253906 2.25 -4.578125 C 2.25 -3.878906 2.382812 -3.269531 2.65625 -2.75 C 2.9375 -2.238281 3.304688 -1.847656 3.765625 -1.578125 C 4.234375 -1.304688 4.75 -1.171875 5.3125 -1.171875 C 5.875 -1.171875 6.390625 -1.304688 6.859375 -1.578125 C 7.328125 -1.847656 7.695312 -2.238281 7.96875 -2.75 C 8.25 -3.269531 8.390625 -3.867188 8.390625 -4.546875 Z M 8.390625 -4.546875 "/></g></g><g style="fill:#000000;fill-opacity:1;"><g transform="translate(83.795977, 28.490401)"><path style="stroke:none" d="M 0.71875 -4.546875 C 0.71875 -5.492188 0.90625 -6.316406 1.28125 -7.015625 C 1.65625 -7.710938 2.175781 -8.253906 2.84375 -8.640625 C 3.507812 -9.023438 4.273438 -9.21875 5.140625 -9.21875 C 6.253906 -9.21875 7.171875 -8.945312 7.890625 -8.40625 C 8.617188 -7.875 9.097656 -7.125 9.328125 -6.15625 L 7.703125 -6.15625 C 7.546875 -6.707031 7.242188 -7.144531 6.796875 -7.46875 C 6.347656 -7.789062 5.796875 -7.953125 5.140625 -7.953125 C 4.273438 -7.953125 3.578125 -7.65625 3.046875 -7.0625 C 2.515625 -6.46875 2.25 -5.628906 2.25 -4.546875 C 2.25 -3.460938 2.515625 -2.617188 3.046875 -2.015625 C 3.578125 -1.421875 4.273438 -1.125 5.140625 -1.125 C 5.796875 -1.125 6.34375 -1.273438 6.78125 -1.578125 C 7.226562 -1.890625 7.535156 -2.335938 7.703125 -2.921875 L 9.328125 -2.921875 C 9.078125 -1.992188 8.585938 -1.25 7.859375 -0.6875 C 7.140625 -0.125 6.234375 0.15625 5.140625 0.15625 C 4.273438 0.15625 3.507812 -0.0351562 2.84375 -0.421875 C 2.175781 -0.816406 1.65625 -1.363281 1.28125 -2.0625 C 0.90625 -2.769531 0.71875 -3.597656 0.71875 -4.546875 Z M 0.71875 -4.546875 "/></g></g><g style="fill:#000000;fill-opacity:1;"><g transform="translate(93.843204, 28.490401)"><path style="stroke:none" d="M 9.5625 -4.890625 C 9.5625 -4.597656 9.539062 -4.289062 9.5 -3.96875 L 2.25 -3.96875 C 2.300781 -3.082031 2.609375 -2.382812 3.171875 -1.875 C 3.734375 -1.375 4.410156 -1.125 5.203125 -1.125 C 5.847656 -1.125 6.390625 -1.273438 6.828125 -1.578125 C 7.265625 -1.878906 7.570312 -2.285156 7.75 -2.796875 L 9.375 -2.796875 C 9.132812 -1.921875 8.648438 -1.207031 7.921875 -0.65625 C 7.191406 -0.113281 6.285156 0.15625 5.203125 0.15625 C 4.335938 0.15625 3.566406 -0.0351562 2.890625 -0.421875 C 2.210938 -0.816406 1.679688 -1.367188 1.296875 -2.078125 C 0.910156 -2.785156 0.71875 -3.609375 0.71875 -4.546875 C 0.71875 -5.492188 0.90625 -6.316406 1.28125 -7.015625 C 1.65625 -7.722656 2.179688 -8.265625 2.859375 -8.640625 C 3.535156 -9.023438 4.316406 -9.21875 5.203125 -9.21875 C 6.066406 -9.21875 6.828125 -9.03125 7.484375 -8.65625 C 8.148438 -8.28125 8.660156 -7.765625 9.015625 -7.109375 C 9.378906 -6.453125 9.5625 -5.710938 9.5625 -4.890625 Z M 8 -5.203125 C 8 -5.773438 7.867188 -6.265625 7.609375 -6.671875 C 7.359375 -7.085938 7.015625 -7.40625 6.578125 -7.625 C 6.140625 -7.84375 5.660156 -7.953125 5.140625 -7.953125 C 4.367188 -7.953125 3.71875 -7.707031 3.1875 -7.21875 C 2.65625 -6.738281 2.347656 -6.066406 2.265625 -5.203125 Z M 8 -5.203125 "/></g></g><g clip-rule="nonzero" clip-path="url(#3c3899b997)"><path style=" stroke:none;fill-rule:evenodd;fill:#27ae60;fill-opacity:1;" d="M 26.191406 11.660156 L 27.273438 11.660156 L 27.273438 12.746094 L 26.191406 12.746094 Z M 26.007812 13.828125 L 27.453125 13.828125 C 27.953125 13.828125 28.359375 13.421875 28.359375 12.921875 L 28.359375 11.476562 C 28.359375 10.980469 27.953125 10.578125 27.453125 10.578125 L 26.007812 10.578125 C 25.511719 10.578125 25.105469 10.980469 25.105469 11.476562 L 25.105469 12.921875 C 25.105469 13.421875 25.511719 13.828125 26.007812 13.828125 Z M 26.191406 16.488281 L 27.273438 16.488281 L 27.273438 17.570312 L 26.191406 17.570312 Z M 26.007812 18.65625 L 27.453125 18.65625 C 27.953125 18.65625 28.359375 18.25 28.359375 17.753906 L 28.359375 16.304688 C 28.359375 15.808594 27.953125 15.402344 27.453125 15.402344 L 26.007812 15.402344 C 25.511719 15.402344 25.105469 15.808594 25.105469 16.304688 L 25.105469 17.753906 C 25.105469 18.25 25.511719 18.65625 26.007812 18.65625 Z M 31.019531 16.488281 L 32.105469 16.488281 L 32.105469 17.570312 L 31.019531 17.570312 Z M 30.835938 18.65625 L 32.285156 18.65625 C 32.78125 18.65625 33.1875 18.25 33.1875 17.753906 L 33.1875 16.304688 C 33.1875 15.808594 32.78125 15.402344 32.285156 15.402344 L 30.835938 15.402344 C 30.339844 15.402344 29.933594 15.808594 29.933594 16.304688 L 29.933594 17.753906 C 29.933594 18.25 30.339844 18.65625 30.835938 18.65625 Z M 31.019531 11.660156 L 32.105469 11.660156 L 32.105469 12.746094 L 31.019531 12.746094 Z M 30.835938 13.828125 L 32.285156 13.828125 C 32.78125 13.828125 33.1875 13.421875 33.1875 12.921875 L 33.1875 11.476562 C 33.1875 10.980469 32.78125 10.578125 32.285156 10.578125 L 30.835938 10.578125 C 30.339844 10.578125 29.933594 10.980469 29.933594 11.476562 L 29.933594 12.921875 C 29.933594 13.421875 30.339844 13.828125 30.835938 13.828125 Z M 21.847656 26.847656 C 22.179688 27.179688 21.953125 27.769531 21.460938 27.769531 C 21.324219 27.769531 21.183594 27.71875 21.078125 27.613281 L 19.835938 26.367188 C 19.734375 26.265625 19.675781 26.128906 19.675781 25.984375 L 19.675781 23.425781 C 19.675781 23.128906 19.921875 22.890625 20.21875 22.890625 C 20.519531 22.890625 20.761719 23.128906 20.761719 23.425781 L 20.761719 25.761719 Z M 20.21875 29.703125 C 22.269531 29.703125 23.9375 28.039062 23.9375 25.984375 C 23.9375 23.933594 22.269531 22.269531 20.21875 22.269531 C 18.167969 22.269531 16.5 23.933594 16.5 25.984375 C 16.5 28.039062 18.167969 29.703125 20.21875 29.703125 Z M 20.21875 21.1875 C 17.570312 21.1875 15.417969 23.335938 15.417969 25.984375 C 15.417969 28.636719 17.570312 30.785156 20.21875 30.785156 C 22.867188 30.785156 25.019531 28.636719 25.019531 25.984375 C 25.019531 23.335938 22.867188 21.1875 20.21875 21.1875 Z M 41.46875 27.757812 L 42.132812 27.097656 L 39.054688 24.027344 L 26.503906 24.027344 C 26.285156 24.027344 26.082031 23.890625 26 23.683594 C 25.050781 21.285156 22.769531 19.738281 20.195312 19.738281 C 16.75 19.738281 13.945312 22.542969 13.945312 25.984375 C 13.945312 29.429688 16.75 32.234375 20.195312 32.234375 C 22.8125 32.234375 25.171875 30.582031 26.066406 28.117188 C 26.144531 27.902344 26.347656 27.757812 26.578125 27.757812 L 28.96875 27.757812 C 29.113281 27.757812 29.25 27.820312 29.351562 27.917969 L 30.984375 29.550781 L 31.777344 29.550781 L 33.40625 27.917969 C 33.617188 27.710938 33.960938 27.710938 34.171875 27.917969 L 35.804688 29.550781 L 36.597656 29.550781 L 38.226562 27.917969 C 38.332031 27.820312 38.46875 27.757812 38.609375 27.757812 Z M 21.28125 12.792969 L 21.28125 18.734375 C 23.730469 19.101562 25.832031 20.6875 26.863281 22.9375 L 37.011719 22.9375 L 37.011719 12.792969 L 29.554688 5.332031 C 29.332031 5.105469 28.960938 5.105469 28.738281 5.332031 Z M 19.160156 13.378906 L 27.96875 4.566406 C 28.617188 3.921875 29.675781 3.921875 30.320312 4.566406 L 39.132812 13.378906 C 39.316406 13.558594 39.558594 13.660156 39.816406 13.660156 C 40.6875 13.660156 41.105469 12.613281 40.5 12.011719 L 31.476562 3.007812 C 30.183594 1.714844 28.082031 1.722656 26.792969 3.007812 L 17.789062 12.011719 C 17.414062 12.390625 17.414062 13 17.789062 13.378906 C 18.164062 13.75 18.78125 13.753906 19.160156 13.378906 Z M 43.28125 26.714844 L 39.664062 23.097656 C 39.5625 23 39.425781 22.9375 39.28125 22.9375 L 38.097656 22.9375 L 38.097656 13.875 L 38.367188 14.140625 C 39.175781 14.949219 40.464844 14.945312 41.265625 14.140625 C 42.066406 13.34375 42.066406 12.042969 41.265625 11.242188 L 32.238281 2.238281 C 30.527344 0.53125 27.738281 0.53125 26.027344 2.242188 L 17.023438 11.242188 C 16.226562 12.042969 16.226562 13.34375 17.023438 14.140625 C 17.828125 14.945312 19.121094 14.949219 19.925781 14.140625 L 20.195312 13.875 L 20.195312 18.65625 C 16.152344 18.65625 12.863281 21.945312 12.863281 25.984375 C 12.863281 30.027344 16.152344 33.316406 20.195312 33.316406 C 23.140625 33.316406 25.804688 31.535156 26.945312 28.847656 L 28.746094 28.847656 L 30.375 30.476562 C 30.476562 30.578125 30.617188 30.636719 30.757812 30.636719 L 32 30.636719 C 32.144531 30.636719 32.28125 30.578125 32.382812 30.476562 L 33.789062 29.070312 L 35.195312 30.476562 C 35.296875 30.578125 35.4375 30.636719 35.578125 30.636719 L 36.820312 30.636719 C 36.964844 30.636719 37.105469 30.578125 37.207031 30.476562 L 38.835938 28.847656 L 41.691406 28.847656 C 41.835938 28.847656 41.976562 28.785156 42.078125 28.6875 L 43.28125 27.480469 C 43.492188 27.269531 43.492188 26.925781 43.28125 26.714844 Z M 43.28125 26.714844 "/></g></g></svg>